<svg width="24" height="24" viewBox="0 0 24 24" xmlns="http://www.w3.org/2000/svg">
  <circle cx="12" cy="12" r="12" fill="#FF4500"/>
  <path fill="#ffffff" d="M16.7 10.6c-.6 0-1.1.2-1.5.6-.9-.6-2.1-.9-3.4-1l.7-3.4 2.4.5c0 .7.6 1.3 1.3 1.3.7 0 1.3-.6 1.3-1.3s-.6-1.3-1.3-1.3c-.5 0-1 .3-1.2.8l-2.6-.5c-.1 0-.2 0-.2.1l-.8 3.8c-1.4.1-2.6.4-3.5 1-.4-.4-.9-.6-1.5-.6-1.1 0-2 .9-2 2 0 .8.5 1.5 1.2 1.8-.1.2-.1.4-.1.7 0 2.6 3.1 4.7 6.8 4.7s6.8-2.1 6.8-4.7c0-.2 0-.4-.1-.7.7-.3 1.2-1 1.2-1.8 0-1.1-.9-2-2-2zm-6.2 4.4c-.6 0-1.1-.5-1.1-1.1 0-.6.5-1.1 1.1-1.1.6 0 1.1.5 1.1 1.1 0 .6-.5 1.1-1.1 1.1zm3.8 1.6c-1 .9-2.7.9-2.8.9s-1.8 0-2.8-.9c-.1-.1-.1-.4 0-.5.1-.1.4-.1.5 0 .8.7 2.1.7 2.2.7.1 0 1.4 0 2.2-.7.1-.1.4-.1.5 0 .2.2.2.4 0 .5zm-.4-2.7c-.6 0-1.1-.5-1.1-1.1 0-.6.5-1.1 1.1-1.1.6 0 1.1.5 1.1 1.1 0 .6-.5 1.1-1.1 1.1z"/>
</svg>
